<svg id="Capa_1" enable-background="new 0 0 512 512" height="512" viewBox="0 0 512 512" width="512" xmlns="http://www.w3.org/2000/svg"><g><ellipse cx="135.853" cy="104.753" fill="#ffca3e" rx="104.753" ry="104.753" transform="matrix(.707 -.707 .707 .707 -34.281 126.744)"/><g fill="#ffe36e"><path d="m73.683 146.205c-5.28-7.892-9.103-16.837-11.069-26.452h37.521z"/><path d="m73.296 63.903 25.85 25.85h-36.533c1.917-9.374 5.608-18.104 10.683-25.85z"/><path d="m120.853 69.034-26.452-26.452c7.892-5.279 16.837-9.103 26.452-11.069z"/><path d="m150.853 31.513c9.615 1.966 18.56 5.79 26.452 11.069l-26.452 26.452z"/><path d="m135.853 179.506c-15.068 0-29.098-4.496-40.849-12.196l51.453-51.454c.002-.002.003-.003.005-.005l51.948-51.948c7.7 11.751 12.196 25.782 12.196 40.85 0 41.219-33.534 74.753-74.753 74.753z"/></g><path d="m405.853 90c-.16 0-269.91.247-270.014.247-8.279.007-14.986 6.721-14.986 15v331.773c0 41.345 33.636 74.98 74.98 74.98h150.04c41.344 0 74.98-33.636 74.98-74.98v-332.02c0-8.292-6.729-15-15-15z" fill="#d3eef4"/><path d="m420.851 105v332.02c0 41.34-33.63 74.98-74.98 74.98h-75.02v-421.88c67.46-.06 134.92-.12 135-.12 8.27 0 15 6.71 15 15z" fill="#ace0f3"/><path d="m120.853 105.247v103.18c4.901.706 9.907 1.078 15 1.078 57.761 0 104.753-46.992 104.753-104.753 0-4.955-.354-9.827-1.023-14.601l-103.745.095c-8.277.008-14.985 6.722-14.985 15.001z" fill="#ffe36e"/><path d="m390.851 285v152.02c0 24.8-20.18 44.98-44.98 44.98h-150.04c-24.8 0-44.98-20.18-44.98-44.98v-152.02z" fill="#ffca3e"/><path d="m390.851 285v152.02c0 24.8-20.18 44.98-44.98 44.98h-75.02v-197z" fill="#fcb216"/><path d="m468.381 30.79-79.63 13.33-46.63 240.88-38.13 197h-30.56l38.13-197 49.71-256.8c1.19-6.15 6.08-10.91 12.25-11.94l89.9-15.05c8.18-1.38 15.91 4.14 17.27 12.31 1.37 8.17-4.14 15.91-12.31 17.27z" fill="#00c4eb"/><circle cx="240.952" cy="436" fill="#ffe36e" r="14.95"/><circle cx="255.002" cy="376" fill="#ffe36e" r="14.95"/><circle cx="196.002" cy="346" fill="#ffe36e" r="14.95"/></g></svg>